<svg viewBox="0 0 20 18" xmlns="http://www.w3.org/2000/svg">
<path fill-rule="evenodd" clip-rule="evenodd" d="M2.53033 0.46967C2.23744 0.176777 1.76256 0.176777 1.46967 0.46967C1.17678 0.762563 1.17678 1.23744 1.46967 1.53033L4.03416 4.09482C2.5531 5.2512 1.20838 6.88604 0 9.00003C2.667 13.667 6 16 10 16C11.6837 16 13.2487 15.5858 14.6981 14.7588L17.4697 17.5303C17.7626 17.8232 18.2374 17.8232 18.5303 17.5303C18.8232 17.2374 18.8232 16.7626 18.5303 16.4697L2.53033 0.46967ZM11.7248 11.7854L7.215 7.27566C7.07424 7.65928 7.00015 8.06809 7 8.48455C6.99967 9.41658 7.36971 10.3106 8.02871 10.9698C8.68771 11.6291 9.58169 11.9997 10.514 12C10.9311 12.0001 11.3405 11.9262 11.7248 11.7854Z" />
<path d="M7.363 2.36506C8.22042 2.11978 9.10819 1.9969 10 2.00006C14 2.00006 17.333 4.33305 20 9.00003C19.222 10.361 18.388 11.524 17.497 12.488L7.363 2.36506Z" />
</svg>
