<svg viewBox="0 0 20 18" fill="none" xmlns="http://www.w3.org/2000/svg">
<path d="M7.363 2.36506C8.22042 2.11978 9.10819 1.9969 10 2.00006C14 2.00006 17.333 4.33305 20 9.00003C19.222 10.361 18.388 11.524 17.497 12.488L7.363 2.36506ZM15.357 14.349C13.726 15.449 11.942 16 10 16C6 16 2.667 13.667 0 9.00003C1.369 6.60504 2.913 4.82505 4.632 3.65905" fill="#4D5863"/>
<path d="M8.03047 6C7.371 6.65881 7.00033 7.55253 7 8.48455C6.99967 9.41658 7.36971 10.3106 8.02871 10.9698C8.68771 11.6291 9.58169 11.9997 10.514 12C11.4463 12.0003 12.3405 11.6304 13 10.9716" fill="white"/>
<path d="M2 1L18 17" stroke="#4D5863" stroke-width="1.5" stroke-linecap="round" stroke-linejoin="round"/>
</svg>
